# xmcd
#
# Track frame offsets: 
#        150
#        14749
#        31342
#        50272
#        62463
#        76237
#        89885
#        105067
#        122365
#        141636
#        152608
#
# Disc length: 2228 seconds
#
# Revision: 0
# Processed by: cddbd v1.5.2PL0 Copyright (c) Steve Scherf et al.
# Submitted via: ExactAudioCopyFreeDBPlugin 1.0
#
DISCID=8508b20b
DTITLE=W.C. Beck - Quivira
DYEAR=2013
DGENRE=Country
TTITLE0=Better Days
TTITLE1=Doctor
TTITLE2=Good Enough Ain't Good Enough
TTITLE3=I Gotta Sing
TTITLE4=Katie
TTITLE5=Last Day
TTITLE6=Nouvelle Orléans
TTITLE7=Tired Horses
TTITLE8=Real Woman
TTITLE9=Son Of Turkey Red
TTITLE10=What Those People Said
EXTD=
EXTT0=
EXTT1=
EXTT2=
EXTT3=
EXTT4=
EXTT5=
EXTT6=
EXTT7=
EXTT8=
EXTT9=
EXTT10=
PLAYORDER=
